# xmcd
#
# Track frame offsets:
#	150
#	22757
#	38043
#	52961
#	69445
#	89310
#	104240
#	120413
#
# Disc length: 1778 seconds
#
# Revision: 1
# Processed by: cddbd v1.5.2PL0 Copyright (c) Steve Scherf et al.
# Submitted via: audiograbber 1.83.01
#
DISCID=5d06f008
DTITLE=kim tolliver - come and get me i'm ready
DYEAR=1900
DGENRE=Soul
TTITLE0=the other side of town
TTITLE1=she don't know you (like i do)
TTITLE2=come and get me i'm ready
TTITLE3=the way he used to
TTITLE4=i need you (come as you are);drop whatever you're doing
TTITLE5=tackin' a woman's stand
TTITLE6=i'm losing the feeling
TTITLE7=learn to get along without you
EXTD=
EXTT0=
EXTT1=
EXTT2=
EXTT3=
EXTT4=
EXTT5=
EXTT6=
EXTT7=
PLAYORDER=
